<svg xmlns="http://www.w3.org/2000/svg" viewBox="0 0 290 290" width="290" height="290"><defs><radialGradient id="a" gradientUnits="userSpaceOnUse" cx="146.6" cy="148" r="139.6"><stop offset="0" stop-color="#000" stop-opacity="0.55"/><stop offset="0.96" stop-color="#000" stop-opacity="0.55"/><stop offset="0.98" stop-color="#000" stop-opacity="0.25"/><stop offset="1" stop-color="#000" stop-opacity="0"/></radialGradient><linearGradient id="b" x1="0.15" y1="0.05" x2="0.85" y2="0.95"><stop offset="0" stop-color="#6B717A"/><stop offset="0.35" stop-color="#34383E"/><stop offset="0.72" stop-color="#1C1E22"/><stop offset="1" stop-color="#0B0C0E"/></linearGradient><linearGradient id="c" x1="0.2" y1="0.1" x2="0.8" y2="0.9"><stop offset="0" stop-color="#C3C8CE" stop-opacity="0.9"/><stop offset="0.5" stop-color="#FFFFFF" stop-opacity="0.05"/><stop offset="1" stop-color="#000" stop-opacity="0.85"/></linearGradient><radialGradient id="d" gradientUnits="userSpaceOnUse" cx="147.3" cy="148.5" r="128"><stop offset="0" stop-color="#1B1D21"/><stop offset="0.82" stop-color="#131417"/><stop offset="0.92" stop-color="#0C0D0F"/><stop offset="1" stop-color="#030304"/></radialGradient><pattern id="e" width="5" height="5" patternUnits="userSpaceOnUse"><rect width="1" height="1" fill="#FFFFFF" fill-opacity="0.06"/><rect x="2.5" y="2.5" width="1" height="1" fill="#000" fill-opacity="0.08"/></pattern></defs><circle cx="146.6" cy="148" r="139.6" fill="url(#a)"/><circle cx="143.7" cy="143.7" r="138" fill="#C3C8CE"/><circle cx="146.3" cy="146.3" r="138" fill="#000"/><circle cx="145" cy="145" r="136.6" fill="url(#b)"/><circle cx="145" cy="145" r="133" fill="url(#c)"/><circle cx="145" cy="145" r="131.2" fill="url(#b)"/><circle cx="146.2" cy="146.2" r="128.6" fill="#8E949C"/><circle cx="143.8" cy="143.8" r="128.6" fill="#000"/><circle cx="145" cy="145" r="126" fill="url(#d)" stroke="#000" stroke-width="1.4"/><circle cx="145" cy="145" r="126" fill="url(#e)"/><circle cx="144" cy="144" r="66" fill="#9EA4AC"/><circle cx="146" cy="146" r="66" fill="#000"/><circle cx="145" cy="145" r="65" fill="url(#b)"/><circle cx="145" cy="145" r="60" fill="#5A6068"/><circle cx="145" cy="145" r="58.5" fill="#3A3E44"/><line x1="68.6" y1="221.4" x2="58.7" y2="231.3" stroke="#A3A7AC" stroke-width="3" stroke-linecap="butt"/><text x="81.4" y="208.6" font-size="29" font-family="Helvetica, Arial, sans-serif" font-weight="bold" fill="#A3A7AC" text-anchor="middle" dominant-baseline="central">UP</text><line x1="37" y1="145" x2="23" y2="145" stroke="#ECEAE3" stroke-width="3" stroke-linecap="butt"/><text x="60" y="145" font-size="29" font-family="Helvetica, Arial, sans-serif" font-weight="bold" fill="#ECEAE3" text-anchor="middle" dominant-baseline="central">-12</text><line x1="68.6" y1="68.6" x2="58.7" y2="58.7" stroke="#ECEAE3" stroke-width="3" stroke-linecap="butt"/><text x="81.4" y="81.4" font-size="29" font-family="Helvetica, Arial, sans-serif" font-weight="bold" fill="#ECEAE3" text-anchor="middle" dominant-baseline="central">0</text><line x1="145" y1="37" x2="145" y2="23" stroke="#ECEAE3" stroke-width="3" stroke-linecap="butt"/><text x="145" y="55" font-size="29" font-family="Helvetica, Arial, sans-serif" font-weight="bold" fill="#ECEAE3" text-anchor="middle" dominant-baseline="central">15</text><line x1="221.4" y1="68.6" x2="231.3" y2="58.7" stroke="#ECEAE3" stroke-width="3" stroke-linecap="butt"/><text x="208.6" y="81.4" font-size="29" font-family="Helvetica, Arial, sans-serif" font-weight="bold" fill="#ECEAE3" text-anchor="middle" dominant-baseline="central">30</text><line x1="253" y1="145" x2="267" y2="145" stroke="#ECEAE3" stroke-width="3" stroke-linecap="butt"/><text x="230" y="145" font-size="29" font-family="Helvetica, Arial, sans-serif" font-weight="bold" fill="#ECEAE3" text-anchor="middle" dominant-baseline="central">35</text><line x1="221.4" y1="221.4" x2="231.3" y2="231.3" stroke="#A3A7AC" stroke-width="3" stroke-linecap="butt"/><text x="208.6" y="208.6" font-size="29" font-family="Helvetica, Arial, sans-serif" font-weight="bold" fill="#A3A7AC" text-anchor="middle" dominant-baseline="central">DN</text><text x="145" y="240" font-size="29" font-family="Helvetica, Arial, sans-serif" font-weight="bold" fill="#ECEAE3" text-anchor="middle" dominant-baseline="central">FLAPS</text></svg>
