<svg xmlns="http://www.w3.org/2000/svg" viewBox="0 0 200 200" width="200" height="200"><circle cx="100" cy="100" r="98" fill="#2A2E33" stroke="#5E646B" stroke-width="3"/><circle cx="100" cy="100" r="90" fill="#131518"/><line x1="48.4" y1="151.6" x2="56.9" y2="143.1" stroke="#ECEEF1" stroke-width="2.5" stroke-linecap="butt"/><line x1="37.8" y1="138.1" x2="42.9" y2="135" stroke="#ECEEF1" stroke-width="1.5" stroke-linecap="butt"/><line x1="30.6" y1="122.6" x2="36.3" y2="120.7" stroke="#ECEEF1" stroke-width="1.5" stroke-linecap="butt"/><line x1="27.2" y1="105.7" x2="33.2" y2="105.3" stroke="#ECEEF1" stroke-width="1.5" stroke-linecap="butt"/><line x1="27.9" y1="88.6" x2="39.8" y2="90.5" stroke="#ECEEF1" stroke-width="2.5" stroke-linecap="butt"/><line x1="32.6" y1="72.1" x2="38.1" y2="74.4" stroke="#ECEEF1" stroke-width="1.5" stroke-linecap="butt"/><line x1="40.9" y1="57.1" x2="45.8" y2="60.6" stroke="#ECEEF1" stroke-width="1.5" stroke-linecap="butt"/><line x1="52.6" y1="44.5" x2="56.5" y2="49.1" stroke="#ECEEF1" stroke-width="1.5" stroke-linecap="butt"/><line x1="66.9" y1="35" x2="72.3" y2="45.6" stroke="#ECEEF1" stroke-width="2.5" stroke-linecap="butt"/><line x1="83" y1="29" x2="84.4" y2="34.9" stroke="#ECEEF1" stroke-width="1.5" stroke-linecap="butt"/><line x1="100" y1="27" x2="100" y2="33" stroke="#ECEEF1" stroke-width="1.5" stroke-linecap="butt"/><line x1="117" y1="29" x2="115.6" y2="34.9" stroke="#ECEEF1" stroke-width="1.5" stroke-linecap="butt"/><line x1="133.1" y1="35" x2="127.7" y2="45.6" stroke="#ECEEF1" stroke-width="2.5" stroke-linecap="butt"/><line x1="147.4" y1="44.5" x2="143.5" y2="49.1" stroke="#ECEEF1" stroke-width="1.5" stroke-linecap="butt"/><line x1="159.1" y1="57.1" x2="154.2" y2="60.6" stroke="#ECEEF1" stroke-width="1.5" stroke-linecap="butt"/><line x1="167.4" y1="72.1" x2="161.9" y2="74.4" stroke="#ECEEF1" stroke-width="1.5" stroke-linecap="butt"/><line x1="172.1" y1="88.6" x2="160.2" y2="90.5" stroke="#ECEEF1" stroke-width="2.5" stroke-linecap="butt"/><line x1="172.8" y1="105.7" x2="166.8" y2="105.3" stroke="#ECEEF1" stroke-width="1.5" stroke-linecap="butt"/><line x1="169.4" y1="122.6" x2="163.7" y2="120.7" stroke="#ECEEF1" stroke-width="1.5" stroke-linecap="butt"/><line x1="162.2" y1="138.1" x2="157.1" y2="135" stroke="#ECEEF1" stroke-width="1.5" stroke-linecap="butt"/><line x1="151.6" y1="151.6" x2="143.1" y2="143.1" stroke="#ECEEF1" stroke-width="2.5" stroke-linecap="butt"/><text x="67.5" y="132.5" font-size="20" font-family="Helvetica, Arial, sans-serif" font-weight="bold" fill="#ECEEF1" text-anchor="middle" dominant-baseline="central">0</text><text x="54.6" y="92.8" font-size="20" font-family="Helvetica, Arial, sans-serif" font-weight="bold" fill="#ECEEF1" text-anchor="middle" dominant-baseline="central">1</text><text x="79.1" y="59" font-size="20" font-family="Helvetica, Arial, sans-serif" font-weight="bold" fill="#ECEEF1" text-anchor="middle" dominant-baseline="central">2</text><text x="120.9" y="59" font-size="20" font-family="Helvetica, Arial, sans-serif" font-weight="bold" fill="#ECEEF1" text-anchor="middle" dominant-baseline="central">3</text><text x="145.4" y="92.8" font-size="20" font-family="Helvetica, Arial, sans-serif" font-weight="bold" fill="#ECEEF1" text-anchor="middle" dominant-baseline="central">4</text><text x="132.5" y="132.5" font-size="20" font-family="Helvetica, Arial, sans-serif" font-weight="bold" fill="#ECEEF1" text-anchor="middle" dominant-baseline="central">5</text><text x="100" y="150" font-size="15" font-family="Helvetica, Arial, sans-serif" font-weight="bold" fill="#ECEEF1" text-anchor="middle" dominant-baseline="central">ALT</text><text x="100" y="170" font-size="13" font-family="Helvetica, Arial, sans-serif" font-weight="bold" fill="#969CA4" text-anchor="middle" dominant-baseline="central">1000 ft</text></svg>