<svg xmlns="http://www.w3.org/2000/svg" viewBox="0 0 150 300" width="150" height="300"><defs><linearGradient id="a" x1="0.15" y1="0.05" x2="0.85" y2="0.95"><stop offset="0" stop-color="#F4F5F6"/><stop offset="0.2" stop-color="#D3D7DC"/><stop offset="0.55" stop-color="#A3A9B0"/><stop offset="0.85" stop-color="#6E747C"/><stop offset="1" stop-color="#383C42"/></linearGradient></defs><rect x="48" y="91" width="62" height="46" rx="10" fill="#000" fill-opacity="0.29"/><rect x="49.33" y="92.33" width="59.33" height="43.33" rx="8.67" fill="#000" fill-opacity="0.29"/><rect x="50.67" y="93.67" width="56.67" height="40.67" rx="7.33" fill="#000" fill-opacity="0.29"/><rect x="52" y="95" width="54" height="38" rx="6" fill="#000" fill-opacity="0.29"/><rect x="45.3" y="85.3" width="58" height="42" rx="8" fill="#FFFFFF"/><rect x="46.7" y="86.7" width="58" height="42" rx="8" fill="#1E2125"/><rect x="46" y="86" width="58" height="42" rx="8" fill="url(#a)"/><line x1="51" y1="95.24" x2="99" y2="95.24" stroke="#1E2125" stroke-opacity="0.85" stroke-width="2" stroke-linecap="round"/><line x1="51.5" y1="97.04" x2="98.5" y2="97.04" stroke="#FFFFFF" stroke-opacity="0.55" stroke-width="1.2" stroke-linecap="round"/><line x1="51" y1="103.08" x2="99" y2="103.08" stroke="#1E2125" stroke-opacity="0.85" stroke-width="2" stroke-linecap="round"/><line x1="51.5" y1="104.88" x2="98.5" y2="104.88" stroke="#FFFFFF" stroke-opacity="0.55" stroke-width="1.2" stroke-linecap="round"/><line x1="51" y1="110.92" x2="99" y2="110.92" stroke="#1E2125" stroke-opacity="0.85" stroke-width="2" stroke-linecap="round"/><line x1="51.5" y1="112.72" x2="98.5" y2="112.72" stroke="#FFFFFF" stroke-opacity="0.55" stroke-width="1.2" stroke-linecap="round"/><line x1="51" y1="118.76" x2="99" y2="118.76" stroke="#1E2125" stroke-opacity="0.85" stroke-width="2" stroke-linecap="round"/><line x1="51.5" y1="120.56" x2="98.5" y2="120.56" stroke="#FFFFFF" stroke-opacity="0.55" stroke-width="1.2" stroke-linecap="round"/><ellipse cx="63.4" cy="96.08" rx="12.76" ry="5.04" fill="#FFFFFF" fill-opacity="0.22"/></svg>
