<svg xmlns="http://www.w3.org/2000/svg" viewBox="0 0 200 292" width="200" height="292"><defs><linearGradient id="bd" x1="0" y1="0" x2="1" y2="0"><stop offset="0" stop-color="#0B1426"/><stop offset="0.1" stop-color="#2A4670"/><stop offset="0.24" stop-color="#6F90BC"/><stop offset="0.38" stop-color="#4A6C9C"/><stop offset="0.6" stop-color="#304F7E"/><stop offset="0.82" stop-color="#1B3158"/><stop offset="1" stop-color="#0A1020"/></linearGradient><linearGradient id="cs" x1="0" y1="0" x2="1" y2="1"><stop offset="0" stop-color="#000" stop-opacity="0"/><stop offset="0.55" stop-color="#000" stop-opacity="0"/><stop offset="0.8" stop-color="#000" stop-opacity="0.28"/><stop offset="1" stop-color="#000" stop-opacity="0.55"/></linearGradient><linearGradient id="hl" x1="0" y1="0" x2="1" y2="0"><stop offset="0" stop-color="#FFFFFF" stop-opacity="0"/><stop offset="0.28" stop-color="#FFFFFF" stop-opacity="0.5"/><stop offset="0.6" stop-color="#FFFFFF" stop-opacity="0.2"/><stop offset="1" stop-color="#FFFFFF" stop-opacity="0"/></linearGradient><clipPath id="cp"><path d="M52 233H60A13 13 0 0 1 73 246V275A13 13 0 0 1 60 288H52A13 13 0 0 1 39 275V246A13 13 0 0 1 52 233Z"/></clipPath><pattern id="tx" width="3" height="3" patternUnits="userSpaceOnUse"><path d="M0 .5H1.2M1.8 2H3" stroke="#FFFFFF" stroke-opacity=".035" stroke-width=".6"/><path d="M0 2.4H1M2 1H2.8" stroke="#000" stroke-opacity=".06" stroke-width=".5"/></pattern></defs><g transform="translate(2.6 3.4)" fill="#000" stroke="#000" stroke-linejoin="round"><path d="M52 233H60A13 13 0 0 1 73 246V275A13 13 0 0 1 60 288H52A13 13 0 0 1 39 275V246A13 13 0 0 1 52 233Z" stroke-width="9" stroke-opacity="0.03" fill-opacity="0.03"/><path d="M52 233H60A13 13 0 0 1 73 246V275A13 13 0 0 1 60 288H52A13 13 0 0 1 39 275V246A13 13 0 0 1 52 233Z" stroke-width="7" stroke-opacity="0.035" fill-opacity="0.035"/><path d="M52 233H60A13 13 0 0 1 73 246V275A13 13 0 0 1 60 288H52A13 13 0 0 1 39 275V246A13 13 0 0 1 52 233Z" stroke-width="5" stroke-opacity="0.04" fill-opacity="0.04"/><path d="M52 233H60A13 13 0 0 1 73 246V275A13 13 0 0 1 60 288H52A13 13 0 0 1 39 275V246A13 13 0 0 1 52 233Z" stroke-width="3.4" stroke-opacity="0.05" fill-opacity="0.05"/><path d="M52 233H60A13 13 0 0 1 73 246V275A13 13 0 0 1 60 288H52A13 13 0 0 1 39 275V246A13 13 0 0 1 52 233Z" stroke-width="1.6" stroke-opacity="0.06" fill-opacity="0.06"/></g><g transform="translate(1.3 1.7)"><path d="M53 234H61A13 13 0 0 1 74 247V276A13 13 0 0 1 61 289H53A13 13 0 0 1 40 276V247A13 13 0 0 1 53 234Z" fill="#000" fill-opacity="0.16"/><path d="M52.5 233.5H60.5A13 13 0 0 1 73.5 246.5V275.5A13 13 0 0 1 60.5 288.5H52.5A13 13 0 0 1 39.5 275.5V246.5A13 13 0 0 1 52.5 233.5Z" fill="#000" fill-opacity="0.22"/></g><path d="M52 233H60A13 13 0 0 1 73 246V275A13 13 0 0 1 60 288H52A13 13 0 0 1 39 275V246A13 13 0 0 1 52 233Z" fill="#050A14"/><path d="M52 233H60A13 13 0 0 1 73 246V275A13 13 0 0 1 60 288H52A13 13 0 0 1 39 275V246A13 13 0 0 1 52 233Z" fill="url(#bd)"/><g clip-path="url(#cp)"><path d="M39 244H73" stroke="#000" stroke-opacity=".5" stroke-width="1.5"/><path d="M39 245.3H73" stroke="#FFFFFF" stroke-opacity=".16" stroke-width=".8"/><path d="M39 252.2H73" stroke="#000" stroke-opacity=".5" stroke-width="1.5"/><path d="M39 253.5H73" stroke="#FFFFFF" stroke-opacity=".16" stroke-width=".8"/><path d="M39 260.4H73" stroke="#000" stroke-opacity=".5" stroke-width="1.5"/><path d="M39 261.7H73" stroke="#FFFFFF" stroke-opacity=".16" stroke-width=".8"/><path d="M39 268.6H73" stroke="#000" stroke-opacity=".5" stroke-width="1.5"/><path d="M39 269.9H73" stroke="#FFFFFF" stroke-opacity=".16" stroke-width=".8"/><path d="M39 276.8H73" stroke="#000" stroke-opacity=".5" stroke-width="1.5"/><path d="M39 278.1H73" stroke="#FFFFFF" stroke-opacity=".16" stroke-width=".8"/><rect x="39" y="233" width="34" height="55" fill="url(#tx)"/></g><path d="M52 233H60A13 13 0 0 1 73 246V275A13 13 0 0 1 60 288H52A13 13 0 0 1 39 275V246A13 13 0 0 1 52 233Z" fill="url(#cs)"/><path d="M46 236H46A2.8 2.8 0 0 1 48.8 238.8V276.2A2.8 2.8 0 0 1 46 279H46A2.8 2.8 0 0 1 43.2 276.2V238.8A2.8 2.8 0 0 1 46 236Z" fill="url(#hl)"/><path d="M51.2 235.2H58.8A2.2 2.2 0 0 1 61 237.4V237.5A2.2 2.2 0 0 1 58.8 239.7H51.2A2.2 2.2 0 0 1 49 237.5V237.4A2.2 2.2 0 0 1 51.2 235.2Z" fill="#FFFFFF" fill-opacity=".12"/><path d="M39.7 275V246A12.3 12.3 0 0 1 52 233.7H60" fill="none" stroke="#C4D4EA" stroke-opacity=".55" stroke-width="1.3" stroke-linecap="round"/><path d="M72.3 246V275A12.3 12.3 0 0 1 60 287.3H52" fill="none" stroke="#000" stroke-opacity=".75" stroke-width="1.4" stroke-linecap="round"/></svg>