<svg xmlns="http://www.w3.org/2000/svg" viewBox="0 0 200 292" width="200" height="292"><defs><linearGradient id="oc" x1="0" y1="0" x2="0" y2="1"><stop offset="0" stop-color="#000" stop-opacity="0.95"/><stop offset="0.45" stop-color="#000" stop-opacity="0.6"/><stop offset="1" stop-color="#000" stop-opacity="0"/></linearGradient><linearGradient id="sk" x1="0" y1="0" x2="0" y2="1"><stop offset="0" stop-color="#4E535A"/><stop offset="1" stop-color="#000"/></linearGradient><linearGradient id="mt1" gradientUnits="userSpaceOnUse" x1="34.44" y1="233.05" x2="77.56" y2="286.95"><stop offset="0" stop-color="#DADDE1"/><stop offset="0.45" stop-color="#C6CACF"/><stop offset="1" stop-color="#A9AEB4"/></linearGradient><pattern id="bp" width="300" height="7" patternUnits="userSpaceOnUse"><path d="M0 1.2H300M0 4.6H300" stroke="#FFFFFF" stroke-opacity=".16" stroke-width=".8"/><path d="M0 2.9H300M0 6.1H300" stroke="#000000" stroke-opacity=".1" stroke-width=".7"/></pattern><radialGradient id="hl2" gradientUnits="userSpaceOnUse" cx="49.04" cy="252.44" r="34.8"><stop offset="0" stop-color="#FFFFFF" stop-opacity="0.42"/><stop offset="0.45" stop-color="#FFFFFF" stop-opacity="0.12"/><stop offset="1" stop-color="#FFFFFF" stop-opacity="0"/></radialGradient><linearGradient id="ex3" gradientUnits="userSpaceOnUse" x1="34.44" y1="233.05" x2="77.56" y2="286.95"><stop offset="0" stop-color="#FFFFFF" stop-opacity="0.22"/><stop offset="0.12" stop-color="#FFFFFF" stop-opacity="0"/><stop offset="0.8" stop-color="#000" stop-opacity="0"/><stop offset="1" stop-color="#000" stop-opacity="0.5"/></linearGradient><linearGradient id="st" x1="0" y1="0" x2="1" y2="0"><stop offset="0" stop-color="#FFFFFF" stop-opacity="0"/><stop offset="0.3" stop-color="#FFFFFF" stop-opacity="0.85"/><stop offset="0.62" stop-color="#FFFFFF" stop-opacity="0.35"/><stop offset="1" stop-color="#FFFFFF" stop-opacity="0"/></linearGradient></defs><path d="M51.5 278H63.5A4 4 0 0 1 67.5 282V286A4 4 0 0 1 63.5 290H51.5A4 4 0 0 1 47.5 286V282A4 4 0 0 1 51.5 278Z" fill="url(#oc)"/><path d="M38.05 243.89H80.05A9.85 9.85 0 0 1 89.91 253.75V281.15A9.85 9.85 0 0 1 80.05 291H38.05A9.85 9.85 0 0 1 28.2 281.15V253.75A9.85 9.85 0 0 1 38.05 243.89Z" fill="#000000" fill-opacity="0.37"/><path d="M38.05 245.75H80.05A8 8 0 0 1 88.05 253.75V281.15A8 8 0 0 1 80.05 289.15H38.05A8 8 0 0 1 30.05 281.15V253.75A8 8 0 0 1 38.05 245.75Z" fill="#000000" fill-opacity="0.37"/><path d="M38.05 247.6H80.05A6.15 6.15 0 0 1 86.2 253.75V281.15A6.15 6.15 0 0 1 80.05 287.29H38.05A6.15 6.15 0 0 1 31.91 281.15V253.75A6.15 6.15 0 0 1 38.05 247.6Z" fill="#000000" fill-opacity="0.37"/><path d="M36.66 242.34H78.66A8 8 0 0 1 86.66 250.34V277.74A8 8 0 0 1 78.66 285.74H36.66A8 8 0 0 1 28.66 277.74V250.34A8 8 0 0 1 36.66 242.34Z" fill="#000000" fill-opacity="0.55"/><path d="M36.2 241.2H78.2A8 8 0 0 1 86.2 249.2V276.6A8 8 0 0 1 78.2 284.6H36.2A8 8 0 0 1 28.2 276.6V249.2A8 8 0 0 1 36.2 241.2Z" fill="url(#sk)"/><path d="M35 239H77A8 8 0 0 1 85 247V273A8 8 0 0 1 77 281H35A8 8 0 0 1 27 273V247A8 8 0 0 1 35 239Z" fill="url(#mt1)"/><path d="M35 239H77A8 8 0 0 1 85 247V273A8 8 0 0 1 77 281H35A8 8 0 0 1 27 273V247A8 8 0 0 1 35 239Z" fill="url(#bp)"/><path d="M35 239H77A8 8 0 0 1 85 247V273A8 8 0 0 1 77 281H35A8 8 0 0 1 27 273V247A8 8 0 0 1 35 239Z" fill="url(#hl2)"/><line x1="33.51" y1="242.19" x2="78.49" y2="242.19" stroke="#000" stroke-opacity="0.68" stroke-width="0.99" stroke-linecap="round"/><line x1="34.11" y1="243.07" x2="77.89" y2="243.07" stroke="#FFFFFF" stroke-opacity="0.23" stroke-width="0.9" stroke-linecap="round"/><line x1="33.08" y1="245.97" x2="78.92" y2="245.97" stroke="#000" stroke-opacity="0.73" stroke-width="1.36" stroke-linecap="round"/><line x1="33.68" y1="247.18" x2="78.32" y2="247.18" stroke="#FFFFFF" stroke-opacity="0.24" stroke-width="0.9" stroke-linecap="round"/><line x1="32.5" y1="251.15" x2="79.5" y2="251.15" stroke="#000" stroke-opacity="0.78" stroke-width="1.74" stroke-linecap="round"/><line x1="33.1" y1="252.69" x2="78.9" y2="252.69" stroke="#FFFFFF" stroke-opacity="0.24" stroke-width="0.9" stroke-linecap="round"/><line x1="31.84" y1="256.95" x2="80.16" y2="256.95" stroke="#000" stroke-opacity="0.80" stroke-width="1.86" stroke-linecap="round"/><line x1="32.44" y1="258.6" x2="79.56" y2="258.6" stroke="#FFFFFF" stroke-opacity="0.22" stroke-width="0.96" stroke-linecap="round"/><line x1="31.84" y1="263.05" x2="80.16" y2="263.05" stroke="#000" stroke-opacity="0.80" stroke-width="1.86" stroke-linecap="round"/><line x1="32.44" y1="264.7" x2="79.56" y2="264.7" stroke="#FFFFFF" stroke-opacity="0.20" stroke-width="0.96" stroke-linecap="round"/><line x1="32.5" y1="268.85" x2="79.5" y2="268.85" stroke="#000" stroke-opacity="0.78" stroke-width="1.74" stroke-linecap="round"/><line x1="33.1" y1="270.39" x2="78.9" y2="270.39" stroke="#FFFFFF" stroke-opacity="0.17" stroke-width="0.9" stroke-linecap="round"/><line x1="33.08" y1="274.03" x2="78.92" y2="274.03" stroke="#000" stroke-opacity="0.73" stroke-width="1.36" stroke-linecap="round"/><line x1="33.68" y1="275.24" x2="78.32" y2="275.24" stroke="#FFFFFF" stroke-opacity="0.13" stroke-width="0.9" stroke-linecap="round"/><line x1="33.51" y1="277.81" x2="78.49" y2="277.81" stroke="#000" stroke-opacity="0.68" stroke-width="0.99" stroke-linecap="round"/><line x1="34.11" y1="278.69" x2="77.89" y2="278.69" stroke="#FFFFFF" stroke-opacity="0.09" stroke-width="0.9" stroke-linecap="round"/><path d="M35 239H77A8 8 0 0 1 85 247V273A8 8 0 0 1 77 281H35A8 8 0 0 1 27 273V247A8 8 0 0 1 35 239Z" fill="url(#ex3)"/><path d="M31.6 245.87H80.4A1.6 1.6 0 0 1 82 247.47V247.47A1.6 1.6 0 0 1 80.4 249.07H31.6A1.6 1.6 0 0 1 30 247.47V247.47A1.6 1.6 0 0 1 31.6 245.87Z" fill="url(#st)" fill-opacity="0.7"/><path d="M27.7 273V247A7.3 7.3 0 0 1 35 239.7H77A7.3 7.3 0 0 1 82.18 241.82" fill="none" stroke="#FFFFFF" stroke-opacity="0.6" stroke-width="1.4" stroke-linecap="round"/><path d="M84.3 247V273A7.3 7.3 0 0 1 77 280.3H35A7.3 7.3 0 0 1 29.82 278.18" fill="none" stroke="#000" stroke-opacity="0.8" stroke-width="1.4" stroke-linecap="round"/></svg>