<svg xmlns="http://www.w3.org/2000/svg" viewBox="0 0 210 232" width="210" height="232"><defs><linearGradient id="w" x1="0" y1="0" x2="0" y2="1"><stop offset="0" stop-color="#050506"/><stop offset="0.22" stop-color="#1C1E22"/><stop offset="0.5" stop-color="#40444B"/><stop offset="0.78" stop-color="#1C1E22"/><stop offset="1" stop-color="#050506"/></linearGradient><linearGradient id="s" x1="0" y1="0" x2="1" y2="0"><stop offset="0" stop-color="#000"/><stop offset="0.6" stop-color="#0B0C0E"/><stop offset="1" stop-color="#2E3136"/></linearGradient></defs><rect x="20" y="54" width="76" height="184" rx="16" fill="#000" fill-opacity="0.24"/><rect x="22" y="56" width="72" height="180" rx="14" fill="#000" fill-opacity="0.24"/><rect x="24" y="58" width="68" height="176" rx="12" fill="#000" fill-opacity="0.24"/><rect x="24" y="56" width="64" height="172" rx="12" fill="#4E535A"/><rect x="25.4" y="57.4" width="62.6" height="170.6" rx="11" fill="#050506"/><rect x="26" y="58" width="60" height="168" rx="10" fill="url(#s)"/><rect x="32" y="62" width="48" height="160" rx="6" fill="url(#w)"/><path d="M35 66.6H77M35 70.15H77M35 76.76H77M35 86.13H77M35 97.88H77M35 111.5H77M35 126.42H77M35 142H77M35 157.58H77M35 172.5H77M35 186.12H77M35 197.87H77M35 207.24H77M35 213.85H77M35 217.4H77" stroke="#000" stroke-opacity="0.85" stroke-width="3.2"/><path d="M36 68.2H58.0M36 71.75H58.0M36 78.36H58.0M36 87.73H58.0M36 99.48H58.0M36 113.1H58.0M36 128.02H58.0M36 143.6H58.0M36 159.18H58.0M36 174.1H58.0M36 187.72H58.0M36 199.47H58.0M36 208.84H58.0M36 215.45H58.0M36 219H58.0" stroke="#FFFFFF" stroke-opacity="0.18" stroke-width="1.4"/><path d="M104 88V192" stroke="#000" stroke-width="7" stroke-linecap="round"/><path d="M105.4 88V192" stroke="#555A61" stroke-opacity="0.6" stroke-width="2" stroke-linecap="round"/><line x1="110" y1="88" x2="118" y2="88" stroke="#A3A7AC" stroke-width="2" stroke-linecap="butt"/><line x1="110" y1="192" x2="118" y2="192" stroke="#A3A7AC" stroke-width="2" stroke-linecap="butt"/><text x="105" y="22" font-size="28" font-family="Helvetica, Arial, sans-serif" font-weight="bold" fill="#ECEAE3" text-anchor="middle" dominant-baseline="central">TRIM</text><text x="124" y="88" font-size="28" font-family="Helvetica, Arial, sans-serif" font-weight="bold" fill="#ECEAE3" text-anchor="start" dominant-baseline="central">DOWN</text><text x="124" y="192" font-size="28" font-family="Helvetica, Arial, sans-serif" font-weight="bold" fill="#ECEAE3" text-anchor="start" dominant-baseline="central">UP</text></svg>
