<svg xmlns="http://www.w3.org/2000/svg" viewBox="0 0 180 180" width="180" height="180"><defs><linearGradient id="a" x1="0.15" y1="0.05" x2="0.85" y2="0.95"><stop offset="0" stop-color="#F4F5F6"/><stop offset="0.2" stop-color="#D3D7DC"/><stop offset="0.55" stop-color="#A3A9B0"/><stop offset="0.85" stop-color="#6E747C"/><stop offset="1" stop-color="#383C42"/></linearGradient></defs><rect x="54" y="124" width="50" height="42" rx="10" fill="#000" fill-opacity="0.29"/><rect x="55.33" y="125.33" width="47.33" height="39.33" rx="8.67" fill="#000" fill-opacity="0.29"/><rect x="56.67" y="126.67" width="44.67" height="36.67" rx="7.33" fill="#000" fill-opacity="0.29"/><rect x="58" y="128" width="42" height="34" rx="6" fill="#000" fill-opacity="0.29"/><rect x="51.3" y="118.3" width="46" height="38" rx="8" fill="#FFFFFF"/><rect x="52.7" y="119.7" width="46" height="38" rx="8" fill="#1E2125"/><rect x="52" y="119" width="46" height="38" rx="8" fill="url(#a)"/><line x1="57" y1="127.36" x2="93" y2="127.36" stroke="#1E2125" stroke-opacity="0.85" stroke-width="2" stroke-linecap="round"/><line x1="57.5" y1="129.16" x2="92.5" y2="129.16" stroke="#FFFFFF" stroke-opacity="0.55" stroke-width="1.2" stroke-linecap="round"/><line x1="57" y1="138" x2="93" y2="138" stroke="#1E2125" stroke-opacity="0.85" stroke-width="2" stroke-linecap="round"/><line x1="57.5" y1="139.8" x2="92.5" y2="139.8" stroke="#FFFFFF" stroke-opacity="0.55" stroke-width="1.2" stroke-linecap="round"/><line x1="57" y1="148.64" x2="93" y2="148.64" stroke="#1E2125" stroke-opacity="0.85" stroke-width="2" stroke-linecap="round"/><line x1="57.5" y1="150.44" x2="92.5" y2="150.44" stroke="#FFFFFF" stroke-opacity="0.55" stroke-width="1.2" stroke-linecap="round"/><ellipse cx="65.8" cy="128.12" rx="10.12" ry="4.56" fill="#FFFFFF" fill-opacity="0.22"/></svg>
